<svg xmlns="http://www.w3.org/2000/svg" viewBox="0 0 48 48">
  <path d="M24 4C12.972066 4 4 12.972074 4 24C4 35.027926 12.972066 44 24 44C35.027934 44 44 35.027926 44 24C44 12.972074 35.027934 4 24 4 z M 24 7C33.406615 7 41 14.593391 41 24C41 33.406609 33.406615 41 24 41C14.593385 41 7 33.406609 7 24C7 14.593391 14.593385 7 24 7 z M 24.5 12C18.328169 12 13.5 17.50434 13.5 24C13.5 30.49566 18.328169 36 24.5 36C28.1558 36 31.376101 34.025262 33.34375 31.121094 A 2.0002 2.0002 0 1 0 30.033203 28.878906C28.714852 30.824738 26.7282 32 24.5 32C20.729831 32 17.5 28.55034 17.5 24C17.5 19.44966 20.729831 16 24.5 16C26.406567 16 28.126085 16.856239 29.421875 18.324219 A 2.0008888 2.0008888 0 1 0 32.421875 15.675781C30.451665 13.443761 27.625433 12 24.5 12 z" fill="#68768E" />
</svg>