<?xml version="1.0" encoding="utf-8"?>
<svg xmlns="http://www.w3.org/2000/svg" viewBox="0 0 32 32" width="512" height="512">
  <path d="M14 4C10.145666 4 7 7.1456661 7 11C7 13.448126 8.3441621 15.505949 10.257812 16.757812C6.5993675 18.24608 4 21.815262 4 26L6 26C6 23.286823 7.4253851 21.01372 9.4804688 19.568359C10.581722 20.955148 12.100328 22 14 22C14.859211 22 15.673118 21.809728 16.414062 21.482422C16.149723 22.27522 16 23.120275 16 24C16 28.406438 19.593562 32 24 32C28.406438 32 32 28.406438 32 24C32 19.593562 28.406438 16 24 16C22.241307 16 20.617849 16.578786 19.294922 17.546875C18.787749 17.251517 18.241497 17.016961 17.689453 16.794922C19.63343 15.548653 21 13.471261 21 11C21 7.1456661 17.854334 4 14 4 z M 14 6C16.773666 6 19 8.2263339 19 11C19 13.773666 16.773666 16 14 16C11.226334 16 9 13.773666 9 11C9 8.2263339 11.226334 6 14 6 z M 14 18C15.015049 18 15.955224 18.239118 16.845703 18.582031C16.115792 19.387828 15.180242 20 14 20C12.815734 20 11.876665 19.384804 11.146484 18.574219C12.037348 18.233175 12.986617 18 14 18 z M 24 18C27.325562 18 30 20.674438 30 24C30 27.325562 27.325562 30 24 30C20.674438 30 18 27.325562 18 24C18 20.674438 20.674438 18 24 18 z M 27.292969 21.292969L24 24.585938L21.707031 22.292969L20.292969 23.707031L24 27.414062L28.707031 22.707031L27.292969 21.292969 z" fill="#4A4A4A" />
</svg>