<?xml version="1.0" encoding="utf-8"?>
<svg xmlns="http://www.w3.org/2000/svg" viewBox="0 0 24 24" width="96" height="96">
  <path d="M12 2C6.4886661 2 2 6.4886661 2 12C2 17.511334 6.4886661 22 12 22C14.037589 22 15.934236 21.380544 17.517578 20.330078L19.017578 21.830078C19.379578 22.193078 20 21.936828 20 21.423828L20 17.822266C20 17.368266 19.631734 17 19.177734 17L15.576172 17C15.063172 17 14.807922 17.620422 15.169922 17.982422L16.070312 18.882812C14.878325 19.589879 13.491096 20 12 20C7.5693339 20 4 16.430666 4 12C4 7.5693339 7.5693339 4 12 4C16.129367 4 19.509258 7.1081391 19.951172 11.109375 A 1.0001391 1.0001391 0 1 0 21.939453 10.890625C21.387367 5.8918609 17.136633 2 12 2 z M 11.984375 5.9863281 A 1.0001 1.0001 0 0 0 11 7L11 12 A 1.0001 1.0001 0 0 0 12 13L15 13 A 1.0001 1.0001 0 1 0 15 11L13 11L13 7 A 1.0001 1.0001 0 0 0 11.984375 5.9863281 z" fill="#FFFFFF" />
</svg>