<svg xmlns="http://www.w3.org/2000/svg" viewBox="0 0 24 24">
  <path d="M18.132812 2.8671875C18.133813 2.8681875 18.133766 2.8700937 18.134766 2.8710938C18.305766 3.1260937 18.463281 3.3901562 18.613281 3.6601562C18.664281 3.7521563 18.710766 3.8454531 18.759766 3.9394531C18.862766 4.1374531 18.959781 4.3389687 19.050781 4.5429688C19.093781 4.6399688 19.137734 4.7359844 19.177734 4.8339844C19.289734 5.1079844 19.394375 5.386875 19.484375 5.671875C19.491375 5.694875 19.500812 5.7152813 19.507812 5.7382812C19.602812 6.0452813 19.680047 6.3607344 19.748047 6.6777344C19.769047 6.7737344 19.786688 6.8697969 19.804688 6.9667969C19.849688 7.2047969 19.885063 7.4454531 19.914062 7.6894531C19.926063 7.7884531 19.938266 7.8872813 19.947266 7.9882812C19.978266 8.3212812 20 8.659 20 9C20 13.096 17.756547 16.663641 14.435547 18.556641C13.666547 18.994641 12.83875 19.338031 11.96875 19.582031C11.87675 19.608031 11.783406 19.631297 11.691406 19.654297C11.358406 19.738297 11.020734 19.805422 10.677734 19.857422C10.563734 19.875422 10.450938 19.896156 10.335938 19.910156C9.8959375 19.964156 9.453 20 9 20C8.659 20 8.3212812 19.979219 7.9882812 19.949219C7.8882813 19.940219 7.7894531 19.926063 7.6894531 19.914062C7.4454531 19.885063 7.2047969 19.848687 6.9667969 19.804688C6.8697969 19.786687 6.7737344 19.77 6.6777344 19.75C6.3597344 19.682 6.0442813 19.604766 5.7382812 19.509766C5.7152813 19.502766 5.694875 19.491375 5.671875 19.484375C5.387875 19.394375 5.1079844 19.291688 4.8339844 19.179688C4.7359844 19.139688 4.6399688 19.095734 4.5429688 19.052734C4.3379687 18.961734 4.1364531 18.864719 3.9394531 18.761719C3.8454531 18.712719 3.7521562 18.664281 3.6601562 18.613281C3.3911562 18.463281 3.1260938 18.305766 2.8710938 18.134766C2.8700938 18.133766 2.8681875 18.133813 2.8671875 18.132812C4.8421875 21.067812 8.196 23 12 23C18.075 23 23 18.075 23 12C23 8.196 21.068813 4.8421875 18.132812 2.8671875 z M 4.4882812 4C4.1442812 4.323 3.818625 4.6663437 3.515625 5.0273438C2.732625 5.9653437 2.1601562 7.0857812 2.0351562 8.3007812C2.0111562 8.5307812 2 8.764 2 9C2 11.706 3.5371563 14.049844 5.7851562 15.214844C5.2861563 14.251844 5 13.16 5 12C5 10.094 5.764 8.3674687 7 7.1054688L7 4L4.4882812 4 z M 12 4L12 7L12 7.5C12 8.693 11.162922 9.6885 10.044922 9.9375C10.251922 11.1085 11.269 12 12.5 12C13.881 12 15 10.881 15 9.5L15 7L16 7L15 4L12 4 z" fill="#0A8800" />
</svg>