<svg xmlns="http://www.w3.org/2000/svg" viewBox="0 0 24 24">
  <path d="M22.043,15.457l-1.414-1.414l-2.5,2.672l-1.146-1.146l2.061-2.061l-1.414-1.414l-2.061,2.061l-3.359-3.359l0.305-0.637 c0.911-1.909,0.52-4.195-0.972-5.687C9.591,2.52,6.419,2.52,4.47,4.47c-1.949,1.949-1.949,5.122,0,7.071 c1.492,1.492,3.778,1.883,5.687,0.972l0.637-0.305l8.749,8.749l1.414-1.414l-1.414-1.414L22.043,15.457z M10.127,10.127 c-1.17,1.17-3.073,1.17-4.243,0c-1.17-1.17-1.17-3.073,0-4.243c1.17-1.17,3.073-1.17,4.243,0 C11.296,7.054,11.296,8.957,10.127,10.127z" fill="#0A8800" />
</svg>