<svg xmlns="http://www.w3.org/2000/svg" viewBox="0 0 16 16">
  <path d="M2.5 2C2.222656 2 2 2.222656 2 2.5L2 4.5C2 4.777344 2.222656 5 2.5 5L4.5 5C4.777344 5 5 4.777344 5 4.5L5 2.5C5 2.222656 4.777344 2 4.5 2 Z M 3 3L4 3L4 4L3 4 Z M 7 3L7 4L14 4L14 3 Z M 2.5 6C2.222656 6 2 6.222656 2 6.5L2 8.5C2 8.777344 2.222656 9 2.5 9L4.5 9C4.777344 9 5 8.777344 5 8.5L5 6.5C5 6.222656 4.777344 6 4.5 6 Z M 3 7L4 7L4 8L3 8 Z M 7 7L7 8L14 8L14 7 Z M 2.5 10C2.222656 10 2 10.222656 2 10.5L2 12.5C2 12.777344 2.222656 13 2.5 13L4.5 13C4.777344 13 5 12.777344 5 12.5L5 10.5C5 10.222656 4.777344 10 4.5 10 Z M 3 11L4 11L4 12L3 12 Z M 7 11L7 12L14 12L14 11Z" fill="#164B3B" />
</svg>