<svg xmlns="http://www.w3.org/2000/svg" viewBox="0 0 24 24">
  <path d="M12 1C8.6761905 1 6 3.6761905 6 7L6 8C4.9 8 4 8.9 4 10L4 20C4 21.1 4.9 22 6 22L18 22C19.1 22 20 21.1 20 20L20 10C20 8.9 19.1 8 18 8L18 7C18 3.6761905 15.32381 1 12 1 z M 12 3C14.27619 3 16 4.7238095 16 7L16 8L8 8L8 7C8 4.7238095 9.7238095 3 12 3 z M 8 14C8.55 14 9 14.45 9 15C9 15.55 8.55 16 8 16C7.45 16 7 15.55 7 15C7 14.45 7.45 14 8 14 z M 12 14C12.55 14 13 14.45 13 15C13 15.55 12.55 16 12 16C11.45 16 11 15.55 11 15C11 14.45 11.45 14 12 14 z M 16 14C16.55 14 17 14.45 17 15C17 15.55 16.55 16 16 16C15.45 16 15 15.55 15 15C15 14.45 15.45 14 16 14 z" fill="#164B3B" />
</svg>