<svg xmlns="http://www.w3.org/2000/svg" viewBox="0 0 26 26">
  <path d="M19 0L8 0C6.34375 0 5 1.34375 5 3L5 23C5 24.65625 6.34375 26 8 26L19 26C20.65625 26 22 24.65625 22 23L22 3C22 1.34375 20.65625 0 19 0 Z M 12.5 1L14.5 1C14.777344 1 15 1.222656 15 1.5C15 1.777344 14.777344 2 14.5 2L12.5 2C12.222656 2 12 1.777344 12 1.5C12 1.222656 12.222656 1 12.5 1 Z M 13.5 24.777344C12.792969 24.777344 12.222656 24.207031 12.222656 23.5C12.222656 22.792969 12.792969 22.222656 13.5 22.222656C14.207031 22.222656 14.777344 22.792969 14.777344 23.5C14.777344 24.207031 14.207031 24.777344 13.5 24.777344 Z M 20 20.5C20 20.777344 19.777344 21 19.5 21L7.5 21C7.222656 21 7 20.777344 7 20.5L7 3.5C7 3.222656 7.222656 3 7.5 3L19.5 3C19.777344 3 20 3.222656 20 3.5Z" fill="#164B3B" />
</svg>