<svg xmlns="http://www.w3.org/2000/svg" viewBox="0 0 24 24">
  <path d="M5.96875 3C5.43375 3 5 3.43375 5 3.96875L5 13L4 13C2.895 13 2 13.895 2 15L2 20C2 20.552 2.448 21 3 21L6.5 21C6.776 21 7 20.776 7 20.5L7 19.5C7 19.224 7.224 19 7.5 19L8.5 19C8.776 19 9 19.224 9 19.5L9 20.5C9 20.776 9.224 21 9.5 21L10.5 21C10.776 21 11 20.776 11 20.5L11 19.5C11 19.224 11.224 19 11.5 19L12.5 19C12.776 19 13 19.224 13 19.5L13 20.5C13 20.776 13.224 21 13.5 21L14.5 21C14.776 21 15 20.776 15 20.5L15 19.5C15 19.224 15.224 19 15.5 19L16.5 19C16.776 19 17 19.224 17 19.5L17 20.5C17 20.776 17.224 21 17.5 21L21 21C21.552 21 22 20.552 22 20L22 15C22 13.895 21.105 13 20 13L19 13L19 3.96875C19 3.43375 18.56625 3 18.03125 3L17.710938 3C17.379938 3 17.042578 3.1532187 16.892578 3.4492188C16.728578 3.7752187 16.39 4 16 4C15.61 4 15.271422 3.7752187 15.107422 3.4492188C14.957422 3.1532187 14.620063 3 14.289062 3L13.710938 3C13.379938 3 13.042578 3.1532187 12.892578 3.4492188C12.728578 3.7752187 12.39 4 12 4C11.61 4 11.271422 3.7752187 11.107422 3.4492188C10.957422 3.1532187 10.620063 3 10.289062 3L9.7109375 3C9.3799375 3 9.0425781 3.1532187 8.8925781 3.4492188C8.7285781 3.7752187 8.39 4 8 4C7.61 4 7.2714219 3.7752187 7.1074219 3.4492188C6.9574219 3.1532187 6.6200625 3 6.2890625 3L5.96875 3 z M 7 6L17 6L17 15L7 15L7 6 z M 14.050781 8.4101562C13.797531 8.4101562 13.543109 8.5057187 13.349609 8.6992188L11.5 10.550781L10.650391 9.6992188C10.263391 9.3122187 9.637 9.3122187 9.25 9.6992188C8.863 10.086219 8.863 10.712609 9.25 11.099609L10.800781 12.650391C11.187781 13.037391 11.812219 13.037391 12.199219 12.650391L14.75 10.099609C15.137 9.7126094 15.137 9.0862188 14.75 8.6992188C14.5565 8.5057187 14.304031 8.4101562 14.050781 8.4101562 z" fill="#164B3B" />
</svg>