<?xml version="1.0" encoding="utf-8"?>
<svg xmlns="http://www.w3.org/2000/svg" viewBox="0 0 24 24" width="96" height="96">
  <path d="M4 4C2.895 4 2 4.895 2 6L2 18C2 19.105 2.895 20 4 20L12.388672 20C12.145672 19.197 12 18.311031 12 17.332031L12 14.029297C12 13.634297 12.23275 13.276234 12.59375 13.115234L18.59375 10.449219C18.85275 10.334219 19.14825 10.334219 19.40625 10.449219L22 11.603516L22 6C22 4.895 21.105 4 20 4L4 4 z M 5.5 7L7.5 7C7.776 7 8 7.224 8 7.5L8 9.5C8 9.776 7.776 10 7.5 10L5.5 10C5.224 10 5 9.776 5 9.5L5 7.5C5 7.224 5.224 7 5.5 7 z M 13.5 8L18.5 8C18.776 8 19 8.224 19 8.5L19 9.5C19 9.776 18.776 10 18.5 10L13.5 10C13.224 10 13 9.776 13 9.5L13 8.5C13 8.224 13.224 8 13.5 8 z M 19 12.552734C18.8615 12.552859 18.72275 12.581172 18.59375 12.638672L14.59375 14.417969C14.23275 14.577969 14 14.935078 14 15.330078L14 17.332031C14 21.682031 17.577 23.714 19 24C20.423 23.714 24 21.682031 24 17.332031L24 15.330078C24 14.935078 23.76725 14.577016 23.40625 14.416016L19.40625 12.638672C19.27725 12.581672 19.1385 12.552609 19 12.552734 z M 5.5 15L6.5 15C6.776 15 7 15.224 7 15.5L7 16.5C7 16.776 6.776 17 6.5 17L5.5 17C5.224 17 5 16.776 5 16.5L5 15.5C5 15.224 5.224 15 5.5 15 z M 9.5 15L10.5 15C10.776 15 11 15.224 11 15.5L11 16.5C11 16.776 10.776 17 10.5 17L9.5 17C9.224 17 9 16.776 9 16.5L9 15.5C9 15.224 9.224 15 9.5 15 z" fill="#FFFFFF" />
</svg>