<svg xmlns="http://www.w3.org/2000/svg" viewBox="0 0 32 32">
  <path d="M1 5L1 26L4.15625 26C4.601563 27.71875 6.148438 29 8 29C9.851563 29 11.398438 27.71875 11.84375 26L20.15625 26C20.601563 27.71875 22.148438 29 24 29C25.851563 29 27.398438 27.71875 27.84375 26L31 26L31 15.59375L30.71875 15.28125L24.71875 9.28125L24.40625 9L19 9L19 5 Z M 3 7L17 7L17 24L11.84375 24C11.398438 22.28125 9.851563 21 8 21C6.148438 21 4.601563 22.28125 4.15625 24L3 24 Z M 10 8C6.699219 8 4 10.699219 4 14C4 17.300781 6.699219 20 10 20C13.300781 20 16 17.300781 16 14C16 10.699219 13.300781 8 10 8 Z M 10 10C12.222656 10 14 11.777344 14 14C14 16.222656 12.222656 18 10 18C7.777344 18 6 16.222656 6 14C6 11.777344 7.777344 10 10 10 Z M 9 11L9 14.40625L9.28125 14.71875L10.71875 16.125L12.125 14.71875L11 13.5625L11 11 Z M 19 11L23.5625 11L29 16.4375L29 24L27.84375 24C27.398438 22.28125 25.851563 21 24 21C22.148438 21 20.601563 22.28125 20.15625 24L19 24 Z M 8 23C9.117188 23 10 23.882813 10 25C10 26.117188 9.117188 27 8 27C6.882813 27 6 26.117188 6 25C6 23.882813 6.882813 23 8 23 Z M 24 23C25.117188 23 26 23.882813 26 25C26 26.117188 25.117188 27 24 27C22.882813 27 22 26.117188 22 25C22 23.882813 22.882813 23 24 23Z" fill="#0A8800" />
</svg>