<svg xmlns="http://www.w3.org/2000/svg" viewBox="0 0 64 64">
  <path d="M3 6C1.347656 6 0 7.347656 0 9C0 10.300781 0.839844 11.402344 2 11.816406L2 40.1875C0.839844 40.597656 0 41.699219 0 43L0 49C0 50.652344 1.347656 52 3 52L8.078125 52C8.566406 55.386719 11.480469 58 15 58C18.519531 58 21.433594 55.386719 21.921875 52L44.078125 52C44.566406 55.386719 47.480469 58 51 58C54.519531 58 57.433594 55.386719 57.921875 52L61 52C62.652344 52 64 50.652344 64 49L64 43C64 41.683594 63.144531 40.578125 61.964844 40.171875C61.976563 40.117188 62 40.0625 62 40L62 36.175781C62 35.214844 61.726563 34.277344 61.203125 33.46875L54.019531 22.296875C53.097656 20.859375 51.527344 20 49.816406 20L48 20L48 18C48 17.449219 47.550781 17 47 17C46.449219 17 46 17.449219 46 18L46 20L42 20L42 11.816406C43.160156 11.402344 44 10.300781 44 9C44 7.347656 42.652344 6 41 6 Z M 3 8L41 8C41.550781 8 42 8.449219 42 9C42 9.550781 41.550781 10 41 10L3 10C2.449219 10 2 9.550781 2 9C2 8.449219 2.449219 8 3 8 Z M 4 12L40 12L40 40L4 40 Z M 22 14C15.382813 14 10 19.382813 10 26C10 32.617188 15.382813 38 22 38C28.617188 38 34 32.617188 34 26C34 19.382813 28.617188 14 22 14 Z M 22 16C27.515625 16 32 20.484375 32 26C32 31.515625 27.515625 36 22 36C16.484375 36 12 31.515625 12 26C12 20.484375 16.484375 16 22 16 Z M 42 22L49.816406 22C50.839844 22 51.785156 22.515625 52.339844 23.375L59.523438 34.550781C59.835938 35.039063 60 35.601563 60 36.175781L60 40L42 40 Z M 27 22.054688C26.746094 22.054688 26.488281 22.152344 26.292969 22.347656L20 28.640625L17.707031 26.347656C17.316406 25.957031 16.683594 25.957031 16.292969 26.347656C15.902344 26.738281 15.902344 27.371094 16.292969 27.761719L19.292969 30.761719C19.488281 30.957031 19.742188 31.054688 20 31.054688C20.257813 31.054688 20.511719 30.957031 20.707031 30.761719L27.707031 23.761719C28.097656 23.371094 28.097656 22.738281 27.707031 22.347656C27.511719 22.152344 27.253906 22.054688 27 22.054688 Z M 46 24C44.898438 24 44 24.898438 44 26L44 32C44 33.101563 44.898438 34 46 34L53.195313 34C53.921875 34 54.59375 33.605469 54.945313 32.96875C55.296875 32.335938 55.277344 31.558594 54.890625 30.941406L51.140625 24.9375C50.773438 24.351563 50.136719 24 49.445313 24 Z M 46 26L49.445313 26L53.203125 32L46 32 Z M 45 36C44.449219 36 44 36.449219 44 37C44 37.550781 44.449219 38 45 38L47 38C47.550781 38 48 37.550781 48 37C48 36.449219 47.550781 36 47 36 Z M 3 42L61 42C61.550781 42 62 42.449219 62 43L62 49C62 49.550781 61.550781 50 61 50L57.921875 50C57.433594 46.613281 54.519531 44 51 44C47.480469 44 44.566406 46.613281 44.078125 50L21.921875 50C21.433594 46.613281 18.519531 44 15 44C11.480469 44 8.566406 46.613281 8.078125 50L3 50C2.449219 50 2 49.550781 2 49L2 48C2.550781 48 3 47.550781 3 47L3 45C3 44.449219 2.550781 44 2 44L2 43C2 42.449219 2.449219 42 3 42 Z M 7 44C6.449219 44 6 44.449219 6 45L6 47C6 47.550781 6.449219 48 7 48C7.550781 48 8 47.550781 8 47L8 45C8 44.449219 7.550781 44 7 44 Z M 23 44C22.449219 44 22 44.449219 22 45L22 47C22 47.550781 22.449219 48 23 48C23.550781 48 24 47.550781 24 47L24 45C24 44.449219 23.550781 44 23 44 Z M 28 44C27.449219 44 27 44.449219 27 45L27 47C27 47.550781 27.449219 48 28 48C28.550781 48 29 47.550781 29 47L29 45C29 44.449219 28.550781 44 28 44 Z M 33 44C32.449219 44 32 44.449219 32 45L32 47C32 47.550781 32.449219 48 33 48C33.550781 48 34 47.550781 34 47L34 45C34 44.449219 33.550781 44 33 44 Z M 38 44C37.449219 44 37 44.449219 37 45L37 47C37 47.550781 37.449219 48 38 48C38.550781 48 39 47.550781 39 47L39 45C39 44.449219 38.550781 44 38 44 Z M 43 44C42.449219 44 42 44.449219 42 45L42 47C42 47.550781 42.449219 48 43 48C43.550781 48 44 47.550781 44 47L44 45C44 44.449219 43.550781 44 43 44 Z M 59 44C58.449219 44 58 44.449219 58 45L58 47C58 47.550781 58.449219 48 59 48C59.550781 48 60 47.550781 60 47L60 45C60 44.449219 59.550781 44 59 44 Z M 15 46C17.757813 46 20 48.242188 20 51C20 53.757813 17.757813 56 15 56C12.242188 56 10 53.757813 10 51C10 48.242188 12.242188 46 15 46 Z M 51 46C53.757813 46 56 48.242188 56 51C56 53.757813 53.757813 56 51 56C48.242188 56 46 53.757813 46 51C46 48.242188 48.242188 46 51 46 Z M 15 49C13.894531 49 13 49.894531 13 51C13 52.105469 13.894531 53 15 53C16.105469 53 17 52.105469 17 51C17 49.894531 16.105469 49 15 49 Z M 51 49C49.894531 49 49 49.894531 49 51C49 52.105469 49.894531 53 51 53C52.105469 53 53 52.105469 53 51C53 49.894531 52.105469 49 51 49Z" fill="#0A8800" />
</svg>