<?xml version="1.0" encoding="utf-8"?>
<svg xmlns="http://www.w3.org/2000/svg" viewBox="0 0 128 128" width="512" height="512">
  <path d="M126.8 87.5c-1.1-2.7-3.3-4.8-6-5.9-2.7-1.1-5.7-1.1-8.4.1l-1.2.5c-1.2-2.1-3.1-3.7-5.3-4.6-2.7-1.1-5.7-1.1-8.4.1l-11.6 4.9c-1.5.6-2.2 2.4-1.6 3.9.5 1.1 1.6 1.8 2.8 1.8.4 0 .8-.1 1.2-.2l11.6-4.9c1.2-.5 2.6-.5 3.8 0 .8.3 1.4.8 1.9 1.4l-23.5 10c.3-4.5-2.1-8.9-6.5-10.8L49.6 72.2c-11-4.9-23.8-3.4-33.4 3.9l-3.9 3c-.1.1-.2.2-.3.3l-1 1c-.6.6-.9 1.3-.9 2.1v32H4c-1.7 0-3 1.3-3 3s1.3 3 3 3h9c1.7 0 3-1.3 3-3V83.7l3.8-2.9c7.9-6 18.3-7.2 27.4-3.2L73 89.2c1.2.5 2.2 1.5 2.6 2.8.5 1.2.4 2.6-.1 3.8C75 97 74 97.9 72.8 98.4c-1.2.5-2.6.4-3.8-.1l-20-8.9c-1.5-.7-3.3 0-4 1.5-.7 1.5 0 3.3 1.5 4l20 8.9c2.7 1.2 5.7 1.3 8.4.2l39.8-16.9c1.2-.5 2.6-.5 3.8 0 1.2.5 2.2 1.5 2.7 2.7.5 1.2.5 2.6 0 3.8-.5 1.2-1.5 2.2-2.7 2.7l-56.4 23.8c-4.5 1.9-9.7 1.8-14.1-.4l-23.8-11.6c-1.5-.7-3.3-.1-4 1.4-.7 1.5-.1 3.3 1.4 4l23.8 11.6c3.2 1.6 6.6 2.3 10.1 2.3 3 0 6.1-.6 9-1.8l56.4-23.8c2.7-1.1 4.8-3.3 5.9-6C127.9 93.2 127.9 90.2 126.8 87.5zM79 67c18.2 0 33-14.8 33-33S97.2 1 79 1 46 15.8 46 34 60.8 67 79 67zM52.2 37h11.9c.3 8.2 2 16.3 5 22.1C60 55.5 53.3 47.1 52.2 37zM79 7c3.4 0 8.3 9.3 8.9 24H70.1C70.7 16.3 75.6 7 79 7zM87.9 37c-.6 14.7-5.5 24-8.9 24s-8.3-9.3-8.9-24H87.9zM89 59.1c2.9-5.7 4.6-13.9 5-22.1h11.9C104.7 47.1 98 55.5 89 59.1zM105.8 31H93.9c-.3-8.2-2-16.3-5-22.1C98 12.5 104.7 20.9 105.8 31zM69 8.9c-2.9 5.7-4.6 13.9-5 22.1H52.2C53.3 20.9 60 12.5 69 8.9zM8.9 16.5L21.7 12c-4 8.8-5.9 18.5-5.6 28.3.2 6.4 1.4 12.6 3.5 18.6.4 1.2 1.6 2 2.8 2 .3 0 .7-.1 1-.2 1.6-.5 2.4-2.3 1.8-3.8-1.9-5.4-3-11.1-3.2-16.8-.3-9 1.5-17.9 5.2-25.9L32 27.7c.4 1.2 1.6 2 2.8 2 .3 0 .7-.1 1-.2 1.6-.5 2.4-2.2 1.9-3.8L30.8 5.7C30.5 5 30 4.4 29.3 4c-.7-.3-1.5-.4-2.3-.1l-20 6.9c-1.6.5-2.4 2.2-1.9 3.8C5.6 16.2 7.3 17 8.9 16.5z" fill="#FFFFFF" />
</svg>