<svg xmlns="http://www.w3.org/2000/svg" viewBox="0 0 26 26">
  <path d="M13 0C12.887 0 12.773641 0.037375 12.681641 0.109375C12.591641 0.181375 10.454937 2.1860313 9.0859375 4.2070312C8.9799375 4.3640313 8.9715469 4.5654687 9.0605469 4.7304688C9.1495469 4.8964687 9.3236719 5 9.5136719 5L11.25 5C11.25 5 11.544828 14.368781 11.673828 14.550781C11.864828 14.818781 12.482047 15 12.998047 15C13.513047 15 14.058047 14.818781 14.248047 14.550781C14.378047 14.369781 14.75 5 14.75 5L16.488281 5C16.677281 5 16.849453 4.8954688 16.939453 4.7304688C17.028453 4.5644688 17.019063 4.3630312 16.914062 4.2070312C15.545062 2.1860312 13.409359 0.180375 13.318359 0.109375C13.224359 0.035375 13.112 3.9968029e-18 13 0 z M 18.765625 3.4941406C18.904625 3.8101406 19 4.1402344 19 4.4902344C19 4.9032344 18.897219 5.3146406 18.699219 5.6816406C18.683219 5.7116406 18.657625 5.7336719 18.640625 5.7636719C21.268625 7.5646719 23 10.58 23 14C23 19.514 18.514 24 13 24C7.486 24 3 19.514 3 14C3 10.58 4.7333281 7.566625 7.3613281 5.765625C7.3433281 5.734625 7.3158281 5.7097344 7.2988281 5.6777344C7.1028281 5.3147344 7 4.9032344 7 4.4902344C7 4.1412344 7.096375 3.8110937 7.234375 3.4960938C3.525375 5.5380937 1.0097656 9.474 1.0097656 14C1.0097656 20.617 6.383 26 13 26C19.617 26 25 20.617 25 14C25 9.474 22.475625 5.5361406 18.765625 3.4941406 z" fill="#164B3B" />
</svg>