<?xml version="1.0" encoding="utf-8"?>
<svg xmlns="http://www.w3.org/2000/svg" viewBox="0 0 24 24" width="96" height="96">
  <path d="M4 4C3.334 4 2.7467656 4.3270781 2.3847656 4.8300781C2.1407656 5.1680781 2.2485625 5.6471875 2.6015625 5.8671875L11.382812 11.339844C11.760812 11.575844 12.239187 11.575844 12.617188 11.339844L21.361328 5.8203125C21.728328 5.5883125 21.819828 5.0840937 21.548828 4.7460938C21.183828 4.2920937 20.627 4 20 4L4 4 z M 21.515625 8.0859375C21.432 8.0868594 21.347078 8.1099062 21.267578 8.1601562L12.617188 13.615234C12.239187 13.850234 11.760812 13.849281 11.382812 13.613281L2.7304688 8.2226562C2.4124687 8.0246562 2 8.2539062 2 8.6289062L2 18C2 19.105 2.895 20 4 20L20 20C21.105 20 22 19.105 22 18L22 8.5644531C22 8.2824531 21.7665 8.0831719 21.515625 8.0859375 z" fill="#848484" />
</svg>