<?xml version="1.0" encoding="utf-8"?>
<svg xmlns="http://www.w3.org/2000/svg" viewBox="0 0 24 24" width="480" height="480">
  <path d="M3 5C2.448 5 2 5.448 2 6L2 16C2 16.552 2.448 17 3 17L13 17L13 15L4.9121094 15 A 1.5 1.5 0 0 0 4 14.087891L4 7.9121094 A 1.5 1.5 0 0 0 4.9121094 7L19.087891 7 A 1.5 1.5 0 0 0 20 7.9121094L20 10L22 10L22 6C22 5.448 21.552 5 21 5L3 5 z M 11.974609 8C11.786691 8.0014902 11.595266 8.0208438 11.400391 8.0585938C10.223391 8.2865937 9.2657812 9.2555469 9.0507812 10.435547C8.7047812 12.340547 10.159 14 12 14C12.353 14 12.686 13.928406 13 13.816406L13 11.816406C13 10.813406 13.813406 10 14.816406 10C14.400781 8.830125 13.290035 7.9895684 11.974609 8 z M 7 10C6.448 10 6 10.447 6 11C6 11.553 6.448 12 7 12C7.552 12 8 11.553 8 11C8 10.447 7.552 10 7 10 z M 15 12L15 14L16 14L16 15.914062L18.085938 18L16 20.085938L16 22L15 22L15 24L24 24L24 22L23 22L23 20.085938L20.914062 18L23 15.914062L23 14L24 14L24 12L15 12 z M 18 14L21 14L21 15.085938L19.5 16.585938L18 15.085938L18 14 z M 19.5 19.414062L21 20.914062L21 22L18 22L18 20.914062L19.5 19.414062 z" fill="#FFFFFF" />
</svg>