<svg xmlns="http://www.w3.org/2000/svg" viewBox="0 0 50 50">
  <path d="M19 48C18.875 48 18.746094 47.976563 18.621094 47.925781C18.175781 47.742188 17.921875 47.265625 18.023438 46.792969L21.769531 29L13 29C12.628906 29 12.289063 28.796875 12.117188 28.46875C11.941406 28.140625 11.964844 27.742188 12.171875 27.4375L29.171875 2.4375C29.445313 2.042969 29.953125 1.894531 30.390625 2.082031C30.832031 2.269531 31.078125 2.738281 30.980469 3.207031L27.230469 21L35 21C35.363281 21 35.703125 21.199219 35.878906 21.519531C36.054688 21.839844 36.039063 22.230469 35.84375 22.539063L19.84375 47.539063C19.652344 47.835938 19.332031 48 19 48Z" fill="#0A8800" />
</svg>