<?xml version="1.0" encoding="utf-8"?>
<svg xmlns="http://www.w3.org/2000/svg" viewBox="0 0 50 50" width="500" height="500">
  <path d="M20 4C19.448 4 19 4.448 19 5L19 18C19 24.063407 23.936593 29 30 29C36.063407 29 41 24.063407 41 18L41 5C41 4.448 40.552 4 40 4C39.448 4 39 4.448 39 5L39 18C39 22.982593 34.982593 27 30 27C25.017407 27 21 22.982593 21 18L21 5C21 4.448 20.552 4 20 4 z M 24 4C23.448 4 23 4.448 23 5L23 10.863281C23.598 10.277281 24.271 9.7716094 25 9.3496094L25 5C25 4.448 24.552 4 24 4 z M 28 4C27.448 4 27 4.448 27 5L27 8.4589844C27.641 8.2579844 28.31 8.1197812 29 8.0507812L29 5C29 4.448 28.552 4 28 4 z M 32 4C31.448 4 31 4.448 31 5L31 8.0507812C31.69 8.1197812 32.359 8.2579844 33 8.4589844L33 5C33 4.448 32.552 4 32 4 z M 36 4C35.448 4 35 4.448 35 5L35 9.3496094C35.729 9.7716094 36.402 10.277281 37 10.863281L37 5C37 4.448 36.552 4 36 4 z M 29 11L29 12.769531C26.352 13.213531 26.267578 15.566703 26.267578 15.845703C26.267578 18.321703 28.271813 18.768906 29.882812 19.128906C31.328813 19.452906 32.146484 19.68425 32.146484 20.65625C32.146484 21.23925 31.867953 22.21875 30.001953 22.21875C29.960953 22.21875 28.990813 22.211516 28.382812 21.603516C28.023812 21.244516 27.850187 20.7255 27.867188 20.0625L27.869141 20L26.011719 20L26.013672 20.064453C26.073672 22.164453 27.055953 23.364375 29.001953 23.734375L29.001953 25L29.097656 25L30.917969 25L31 25L31 23.765625C33.846 23.303625 34 21.097578 34 20.642578C34.001 18.251578 31.996719 17.791875 30.386719 17.421875C28.940719 17.089875 28.123047 16.856406 28.123047 15.941406C28.123047 14.846406 28.728297 14.335937 30.029297 14.335938C31.445297 14.335938 31.818141 15.207 31.869141 16L33.724609 16C33.725609 15.224 33.410469 14.38925 32.855469 13.78125C32.369469 13.25025 31.731047 12.908484 30.998047 12.771484L30.998047 11L30.917969 11L29.095703 11L29 11 z M 44.158203 25.984375C43.976081 25.987088 43.794527 26.003877 43.613281 26.033203C43.129958 26.111403 42.654568 26.286441 42.216797 26.5625L31.117188 33.402344C30.860975 33.262254 30.546838 33.107561 30.132812 32.908203C29.657062 32.679123 29.159549 32.445393 28.878906 32.318359C27.368214 31.6352 22.551898 29.647251 18.896484 28.042969C17.33274 27.356725 15.661395 27.005995 13.988281 26.990234C12.315168 26.974474 10.638837 27.294229 9.0625 27.951172L2.6152344 30.636719 A 1.0001 1.0001 0 1 0 3.3847656 32.482422L9.8320312 29.796875C12.481356 28.692761 15.463286 28.721482 18.091797 29.875C21.782383 31.494718 26.67738 33.517784 28.054688 34.140625C28.302045 34.252592 28.801627 34.487516 29.265625 34.710938C29.729623 34.934357 30.21732 35.181535 30.257812 35.205078C30.703995 35.464594 31 35.929151 31 36.488281C31 37.329093 30.340812 37.988281 29.5 37.988281C29.380834 37.988281 29.267782 37.974949 29.160156 37.949219 A 1.0001 1.0001 0 0 0 29.158203 37.949219C29.132973 37.943219 28.341821 37.721019 27.382812 37.439453C26.423804 37.157887 25.203555 36.796274 24.003906 36.439453C21.604609 35.725811 19.287109 35.03125 19.287109 35.03125 A 1.0001054 1.0001054 0 0 0 18.712891 36.947266C18.712891 36.947266 21.033844 37.641111 23.435547 38.355469C24.636398 38.712648 25.857071 39.074613 26.820312 39.357422C27.782628 39.639959 28.395226 39.823361 28.695312 39.894531C28.955687 39.956791 29.225166 39.988281 29.5 39.988281C31.421188 39.988281 33 38.40947 33 36.488281C33 35.89616 32.845356 35.339664 32.582031 34.849609L43.275391 28.259766 A 1.0001 1.0001 0 0 0 43.285156 28.253906C44.122074 27.726144 45.198996 27.970034 45.726562 28.806641C46.239013 29.618936 46.024802 30.663506 45.234375 31.208984 A 1.0001 1.0001 0 0 0 45.197266 31.234375L29.423828 43.185547C28.347119 44.001891 26.936059 44.221423 25.662109 43.769531L14.013672 39.640625C11.320349 38.529005 8.2378995 38.903354 5.8886719 40.626953L2.4042969 43.183594 A 1.0001 1.0001 0 1 0 3.5878906 44.794922L7.0722656 42.240234C8.861038 40.927834 11.199323 40.643854 13.25 41.490234 A 1.0001 1.0001 0 0 0 13.296875 41.507812L24.994141 45.654297C26.900191 46.330405 29.021523 46.000953 30.632812 44.779297L46.369141 32.855469C48.024714 31.712947 48.491519 29.441939 47.417969 27.740234C46.693184 26.590883 45.433055 25.965387 44.158203 25.984375 z" fill="#FFFFFF" />
</svg>