<svg xmlns="http://www.w3.org/2000/svg" viewBox="0 0 48 48">
  <path d="M24.5 4C14.794 4 9 9.42 9 18.5L9 22.021484C7.747 22.950484 7 24.402 7 26C7 28.357 8.6388906 30.337281 10.837891 30.863281C12.830891 38.766281 18.026 44 24 44C24.828 44 25.5 43.329 25.5 42.5C25.5 41.671 24.828 41 24 41C19.294 41 14.987344 36.141547 13.527344 29.185547C13.381344 28.491547 12.770547 27.994141 12.060547 27.994141C12.026547 27.994141 11.983406 27.995047 11.941406 27.998047C10.865406 27.968047 10 27.083 10 26C10 25.235 10.438531 24.55375 11.144531 24.21875C11.265787 24.16102 11.373609 24.0848 11.472656 24L15.478516 24L15.478516 25C15.478516 27.191282 17.287233 29 19.478516 29C21.669798 29 23.478516 27.191282 23.478516 25L25.478516 25C25.478516 27.191282 27.287233 29 29.478516 29C31.669798 29 33.478516 27.191282 33.478516 25L33.478516 24L36 24L36 30.5C36 33.003499 34.003499 35 31.5 35L29.660156 35 A 3.5 3.5 0 0 0 26.5 33 A 3.5 3.5 0 1 0 26.5 40 A 3.5 3.5 0 0 0 29.658203 38L31.5 38C35.455727 38 38.713881 34.892719 38.974609 31L39 31C41.209 31 43 29.209 43 27L43 25C43 22.791 41.209 21 39 21L39 20.5C39 19.042333 38.709042 17.747445 38.417969 16.816406C39.000418 16.492067 39.466643 15.987279 39.740234 15.367188C40.098234 14.554188 40.085125 13.629031 39.703125 12.832031C37.019125 7.2180313 31.477 4 24.5 4 z M 19.556641 15.666016C21.197641 16.667016 24.431 18 30 18C32.146751 18 34.009504 17.806892 35.496094 17.564453C35.731455 18.269148 36 19.301852 36 20.5L36 21L31.978516 21L26.978516 21 A 1.50015 1.50015 0 0 0 25.566406 22L23.390625 22 A 1.50015 1.50015 0 0 0 21.978516 21L17.021484 21L16.978516 21L12 21L12 20.173828C15.855 19.161828 18.268641 17.104016 19.556641 15.666016 z M 18.478516 24L20.478516 24L20.478516 25C20.478516 25.570718 20.049233 26 19.478516 26C18.907798 26 18.478516 25.570718 18.478516 25L18.478516 24 z M 28.478516 24L30.478516 24L30.478516 25C30.478516 25.570718 30.049233 26 29.478516 26C28.907798 26 28.478516 25.570718 28.478516 25L28.478516 24 z" fill="#0A8800" />
</svg>