<svg xmlns="http://www.w3.org/2000/svg" viewBox="0 0 32 32">
  <path d="M15 3C8.953125 3 4 7.953125 4 14C4 16.164063 4.839844 17.976563 5.59375 19.59375C6.347656 21.210938 7 22.628906 7 24.09375L7 29L9 29L9 24.09375C9 22.058594 8.152344 20.355469 7.40625 18.75C6.660156 17.144531 6 15.636719 6 14C6 9.386719 9.519531 5.570313 14 5.0625L14 12.15625C12.28125 12.601563 11 14.148438 11 16C11 18.199219 12.800781 20 15 20C15.78125 20 16.507813 19.769531 17.125 19.375L19 20.65625C19.074219 21.414063 19.722656 22 20.5 22C21.328125 22 22 21.328125 22 20.5C22 19.671875 21.328125 19 20.5 19C20.394531 19 20.285156 19.011719 20.1875 19.03125L18.5 17.875C18.804688 17.3125 19 16.683594 19 16C19 14.148438 17.71875 12.601563 16 12.15625L16 5.03125C19.164063 5.289063 20.980469 6.757813 22.09375 8.21875C23.324219 9.828125 23.625 11.40625 23.625 11.40625L23.65625 11.53125L23.71875 11.65625L26.375 17C26.449219 17.171875 26.441406 17.304688 26.4375 17.34375L26.375 17.34375C25.839844 17.523438 24.75 17.84375 24.75 17.84375L24 18.03125L24 21C24 21.667969 23.625 22.4375 23.03125 23.03125C22.4375 23.625 21.667969 24 21 24L19 24L19 29L21 29L21 26C22.332031 26 23.5625 25.375 24.46875 24.46875C25.375 23.5625 26 22.332031 26 21L26 19.53125C26.339844 19.433594 26.566406 19.402344 26.9375 19.28125C26.96875 19.273438 27 19.257813 27.03125 19.25L27.03125 19.21875C27.675781 19.015625 28.214844 18.480469 28.375 17.90625C28.546875 17.296875 28.4375 16.734375 28.21875 16.21875L28.21875 16.1875L28.1875 16.15625L25.53125 10.8125L25.5 10.75C25.421875 10.398438 25.023438 8.789063 23.65625 7C22.136719 5.007813 19.394531 3 15 3 Z M 15 14C16.117188 14 17 14.882813 17 16C17 17.117188 16.117188 18 15 18C13.882813 18 13 17.117188 13 16C13 14.882813 13.882813 14 15 14Z" fill="#0A8800" />
</svg>