<?xml version="1.0" encoding="utf-8"?>
<svg xmlns="http://www.w3.org/2000/svg" viewBox="0 0 32 32" width="512" height="512">
  <path d="M5 6C3.355469 6 2 7.355469 2 9L2 23C2 24.644531 3.355469 26 5 26L27 26C28.644531 26 30 24.644531 30 23L30 9C30 7.355469 28.644531 6 27 6 Z M 5 8L27 8C27.566406 8 28 8.433594 28 9L28 23C28 23.566406 27.566406 24 27 24L5 24C4.433594 24 4 23.566406 4 23L4 9C4 8.433594 4.433594 8 5 8 Z M 6 10L6 12L26 12L26 10 Z M 6 14L6 16L8 16L8 14 Z M 9 14L9 16L11 16L11 14 Z M 12 14L12 16L14 16L14 14 Z M 18 14L18 16L20 16L20 14 Z M 21 14L21 16L23 16L23 14 Z M 24 14L24 16L26 16L26 14 Z M 6 17L6 19L8 19L8 17 Z M 9 17L9 19L11 19L11 17 Z M 12 17L12 19L14 19L14 17 Z M 18 17L18 19L20 19L20 17 Z M 21 17L21 19L23 19L23 17 Z M 24 17L24 19L26 19L26 17 Z M 6 20L6 22L8 22L8 20 Z M 9 20L9 22L11 22L11 20 Z M 12 20L12 22L14 22L14 20 Z M 18 20L18 22L20 22L20 20 Z M 21 20L21 22L23 22L23 20 Z M 24 20L24 22L26 22L26 20Z" fill="#FFFFFF" />
</svg>