<?xml version="1.0" encoding="utf-8"?>
<svg xmlns="http://www.w3.org/2000/svg" viewBox="0 0 24 24" width="96" height="96">
  <path d="M5.5 2C3.567 2 2 3.567 2 5.5C2 7.433 3.567 9 5.5 9C7.433 9 9 7.433 9 5.5C9 3.567 7.433 2 5.5 2 z M 21.330078 3.1015625L17.679688 3.6523438C17.273688 3.7133437 17.110391 4.21 17.400391 4.5L18.242188 5.34375L15.177734 8.4082031L14.283203 7.5703125 A 1.0001 1.0001 0 0 0 12.884766 7.6015625L9.4921875 11.078125L8.7070312 10.292969 A 1.0001 1.0001 0 0 0 7.3007812 10.285156L3.3027344 14.203125 A 1.0001 1.0001 0 1 0 4.703125 15.630859L7.9921875 12.40625L8.7929688 13.207031 A 1.0001 1.0001 0 0 0 10.214844 13.199219L13.630859 9.6992188L14.515625 10.529297 A 1.0001 1.0001 0 0 0 15.90625 10.507812L19.65625 6.7578125L20.5 7.5996094C20.79 7.8896094 21.286656 7.7263125 21.347656 7.3203125L21.898438 3.6699219C21.948438 3.3369219 21.663078 3.0515625 21.330078 3.1015625 z M 6.109375 3.4980469L6.3574219 3.4980469L6.3574219 6.6816406C6.3574219 7.0476406 6.0613125 7.34375 5.6953125 7.34375C5.3303125 7.34375 5.0332031 7.0466406 5.0332031 6.6816406L5.0332031 4.9648438L4.5 5.171875C4.192 5.290875 3.8613281 5.063375 3.8613281 4.734375C3.8613281 4.543375 3.9753437 4.3708281 4.1523438 4.2988281L6.109375 3.4980469 z M 19.984375 10.986328 A 1.0001 1.0001 0 0 0 19 12L19 21 A 1.0001 1.0001 0 1 0 21 21L21 12 A 1.0001 1.0001 0 0 0 19.984375 10.986328 z M 15.984375 12.986328 A 1.0001 1.0001 0 0 0 15 14L15 21 A 1.0001 1.0001 0 1 0 17 21L17 14 A 1.0001 1.0001 0 0 0 15.984375 12.986328 z M 11.984375 14.986328 A 1.0001 1.0001 0 0 0 11 16L11 21 A 1.0001 1.0001 0 1 0 13 21L13 16 A 1.0001 1.0001 0 0 0 11.984375 14.986328 z M 7.984375 16.986328 A 1.0001 1.0001 0 0 0 7 18L7 21 A 1.0001 1.0001 0 1 0 9 21L9 18 A 1.0001 1.0001 0 0 0 7.984375 16.986328 z M 3.984375 18.986328 A 1.0001 1.0001 0 0 0 3 20L3 21 A 1.0001 1.0001 0 1 0 5 21L5 20 A 1.0001 1.0001 0 0 0 3.984375 18.986328 z" fill="#183C19" />
</svg>