<?xml version="1.0" encoding="utf-8"?>
<svg xmlns="http://www.w3.org/2000/svg" viewBox="0 0 50 50" width="500" height="500">
  <path d="M3.8125 7C2.707031 7.050781 1.855469 7.988281 1.90625 9.09375C1.957031 10.199219 2.894531 11.050781 4 11L7 11C7.722656 11.011719 8.390625 10.632813 8.753906 10.007813C9.121094 9.386719 9.121094 8.613281 8.753906 7.992188C8.390625 7.367188 7.722656 6.988281 7 7L4 7C3.9375 6.996094 3.875 6.996094 3.8125 7 Z M 12.8125 7C11.707031 7.050781 10.855469 7.988281 10.90625 9.09375C10.957031 10.199219 11.894531 11.050781 13 11L35 11C35.722656 11.011719 36.390625 10.632813 36.753906 10.007813C37.121094 9.386719 37.121094 8.613281 36.753906 7.992188C36.390625 7.367188 35.722656 6.988281 35 7L13 7C12.9375 6.996094 12.875 6.996094 12.8125 7 Z M 41 7C39.894531 7 39 7.894531 39 9C39 10.105469 39.894531 11 41 11C42.105469 11 43 10.105469 43 9C43 7.894531 42.105469 7 41 7 Z M 46 7C44.894531 7 44 7.894531 44 9C44 10.105469 44.894531 11 46 11C47.105469 11 48 10.105469 48 9C48 7.894531 47.105469 7 46 7 Z M 3.8125 15C2.707031 15.050781 1.855469 15.988281 1.90625 17.09375C1.957031 18.199219 2.894531 19.050781 4 19L7 19C7.722656 19.011719 8.390625 18.632813 8.753906 18.007813C9.121094 17.386719 9.121094 16.613281 8.753906 15.992188C8.390625 15.367188 7.722656 14.988281 7 15L4 15C3.9375 14.996094 3.875 14.996094 3.8125 15 Z M 12.8125 15C11.707031 15.050781 10.855469 15.988281 10.90625 17.09375C10.957031 18.199219 11.894531 19.050781 13 19L35 19C35.722656 19.011719 36.390625 18.632813 36.753906 18.007813C37.121094 17.386719 37.121094 16.613281 36.753906 15.992188C36.390625 15.367188 35.722656 14.988281 35 15L13 15C12.9375 14.996094 12.875 14.996094 12.8125 15 Z M 46 15C44.894531 15 44 15.894531 44 17C44 18.105469 44.894531 19 46 19C47.105469 19 48 18.105469 48 17C48 15.894531 47.105469 15 46 15 Z M 3.8125 23C2.707031 23.050781 1.855469 23.988281 1.90625 25.09375C1.957031 26.199219 2.894531 27.050781 4 27L7 27C7.722656 27.011719 8.390625 26.632813 8.753906 26.007813C9.121094 25.386719 9.121094 24.613281 8.753906 23.992188C8.390625 23.367188 7.722656 22.988281 7 23L4 23C3.9375 22.996094 3.875 22.996094 3.8125 23 Z M 12.8125 23C11.707031 23.050781 10.855469 23.988281 10.90625 25.09375C10.957031 26.199219 11.894531 27.050781 13 27L35 27C35.722656 27.011719 36.390625 26.632813 36.753906 26.007813C37.121094 25.386719 37.121094 24.613281 36.753906 23.992188C36.390625 23.367188 35.722656 22.988281 35 23L13 23C12.9375 22.996094 12.875 22.996094 12.8125 23 Z M 46 23C44.894531 23 44 23.894531 44 25C44 26.105469 44.894531 27 46 27C47.105469 27 48 26.105469 48 25C48 23.894531 47.105469 23 46 23 Z M 3.8125 31C2.707031 31.050781 1.855469 31.988281 1.90625 33.09375C1.957031 34.199219 2.894531 35.050781 4 35L7 35C7.722656 35.011719 8.390625 34.632813 8.753906 34.007813C9.121094 33.386719 9.121094 32.613281 8.753906 31.992188C8.390625 31.367188 7.722656 30.988281 7 31L4 31C3.9375 30.996094 3.875 30.996094 3.8125 31 Z M 12.8125 31C11.707031 31.050781 10.855469 31.988281 10.90625 33.09375C10.957031 34.199219 11.894531 35.050781 13 35L35 35C35.722656 35.011719 36.390625 34.632813 36.753906 34.007813C37.121094 33.386719 37.121094 32.613281 36.753906 31.992188C36.390625 31.367188 35.722656 30.988281 35 31L13 31C12.9375 30.996094 12.875 30.996094 12.8125 31 Z M 41 31C39.894531 31 39 31.894531 39 33C39 34.105469 39.894531 35 41 35C42.105469 35 43 34.105469 43 33C43 31.894531 42.105469 31 41 31 Z M 46 31C44.894531 31 44 31.894531 44 33C44 34.105469 44.894531 35 46 35C47.105469 35 48 34.105469 48 33C48 31.894531 47.105469 31 46 31 Z M 3.8125 39C2.707031 39.050781 1.855469 39.988281 1.90625 41.09375C1.957031 42.199219 2.894531 43.050781 4 43L7 43C7.722656 43.011719 8.390625 42.632813 8.753906 42.007813C9.121094 41.386719 9.121094 40.613281 8.753906 39.992188C8.390625 39.367188 7.722656 38.988281 7 39L4 39C3.9375 38.996094 3.875 38.996094 3.8125 39 Z M 12.8125 39C11.707031 39.050781 10.855469 39.988281 10.90625 41.09375C10.957031 42.199219 11.894531 43.050781 13 43L35 43C35.722656 43.011719 36.390625 42.632813 36.753906 42.007813C37.121094 41.386719 37.121094 40.613281 36.753906 39.992188C36.390625 39.367188 35.722656 38.988281 35 39L13 39C12.9375 38.996094 12.875 38.996094 12.8125 39 Z M 46 39C44.894531 39 44 39.894531 44 41C44 42.105469 44.894531 43 46 43C47.105469 43 48 42.105469 48 41C48 39.894531 47.105469 39 46 39Z" fill="#FFFFFF" />
</svg>