<?xml version="1.0" encoding="utf-8"?>
<svg xmlns="http://www.w3.org/2000/svg" viewBox="0 0 50 50" width="500" height="500">
  <path d="M34.71875 3.03125C33.976563 3.03125 33.101563 3.183594 31.90625 3.5C28.898438 4.292969 11.261719 9.171875 11 9.25C8.382813 10.234375 6.726563 11.203125 5.6875 12.34375C6.90625 11.519531 8.359375 11 10 11L38 11L38 7.65625C38 6.039063 37.988281 3.03125 34.71875 3.03125 Z M 10 13C6.28125 13 4 16.496094 4 19L4 40.375C4 43.472656 6.527344 46 9.625 46L40.375 46C43.472656 46 46 43.472656 46 40.375L46 18.84375C46 15.785156 43.140625 13 40 13 Z M 38.5 27C39.878906 27 41 28.117188 41 29.5C41 30.882813 39.878906 32 38.5 32C37.117188 32 36 30.882813 36 29.5C36 28.117188 37.117188 27 38.5 27Z" fill="#FFFFFF" />
</svg>